# xmcd
#
# Track frame offsets:
#	150
#	3609
#	11796
#	26080
#	40419
#	54620
#	65870
#	68308
#	81111
#	93247
#	105642
#	116215
#	125956
#	126917
#	139532
#	153472
#	166703
#	176704
#	184799
#
# Disc length: 2664 seconds
#
# Revision: 3625821413
# Processed by: cddbd v1.5.2PL0 Copyright (c) Steve Scherf et al.
# Submitted via: EZCDAudioConverter 8.5.0.1
#
DISCID=0b0a6613
DTITLE=Roger Miller - King Of The Road: A Tribute To Roger Miller
DYEAR=2018
DGENRE=Country
TTITLE0=Roger Miller - Mouth Noises (Banter)
TTITLE1=Eric Church - Oo De Lally
TTITLE2=Emerson Hart Feat. Jon Randall - Engine, Engine #9
TTITLE3=Flatt Lonesome - When Two Worlds Collide
TTITLE4=CAKE - Reincarnation
TTITLE5=Dean Miller Feat. The McCrary Sisters - You Can't Do Me This Way
TTITLE6=Roger Miller - Chicken S#$! (Banter)
TTITLE7=Toad The Wet Sprocket - Nothing Can Stop My Love
TTITLE8=Jamey Johnson Feat. Emmylou Harris - Husbands And Wives
TTITLE9=Lily Meola - I'll Pick Up My Heart And Go Home
TTITLE10=Daphne And The Mystery Machines - I Believe In The Sunshine
TTITLE11=John Goodman - Guv'ment
TTITLE12=Roger Miller - Old Songwriters Never Die (Banter)
TTITLE13=Ringo Starr - Hey, Would You Hold It Down?
TTITLE14=Dolly Parton and Alison Krauss - The Last Word In Lonesome Is Me
TTITLE15=Radney Foster Feat. Tawnya Reynolds - I'd Come Back To Me
TTITLE16=The Dead South - One Dying And A Burying
TTITLE17=Robert Earl Keen Jr. - Do Wacka Do
TTITLE18=Roger Miller - King Of The Road
EXTD=
EXTT0=
EXTT1=
EXTT2=
EXTT3=
EXTT4=
EXTT5=
EXTT6=
EXTT7=
EXTT8=
EXTT9=
EXTT10=
EXTT11=
EXTT12=
EXTT13=
EXTT14=
EXTT15=
EXTT16=
EXTT17=
EXTT18=
PLAYORDER=
